# WaveFront *.obj file (generated by Autodesk ATF)

mtllib hex.mtl

g Body1

v -0.050000 -0.086603 0.000000
v 0.050000 -0.086603 0.000000
v 0.050000 -0.086603 0.100000
v -0.050000 -0.086603 0.100000
v -0.100000 0.000000 0.000000
v -0.100000 0.000000 0.100000
v -0.050000 0.086603 0.000000
v -0.050000 0.086603 0.100000
v 0.050000 0.086603 0.000000
v 0.050000 0.086603 0.100000
v 0.100000 0.000000 0.000000
v 0.100000 0.000000 0.100000
vt 0.000000 0.000000 0.000000
vt 10.000000 0.000000 0.000000
vt 0.000000 10.000000 0.000000
vt 10.000000 10.000000 0.000000
vt 0.000000 0.000000 0.000000
vt 10.000000 0.000000 0.000000
vt -0.000000 10.000000 0.000000
vt 10.000000 10.000000 0.000000
vt 0.000000 0.000000 0.000000
vt 10.000000 0.000000 0.000000
vt -0.000000 10.000000 0.000000
vt 10.000000 10.000000 0.000000
vt 0.000000 0.000000 0.000000
vt 10.000000 0.000000 0.000000
vt 0.000000 10.000000 0.000000
vt 10.000000 10.000000 0.000000
vt 0.000000 0.000000 0.000000
vt 10.000000 0.000000 0.000000
vt 0.000000 10.000000 0.000000
vt 10.000000 10.000000 0.000000
vt 0.000000 0.000000 0.000000
vt 10.000000 0.000000 0.000000
vt 0.000000 10.000000 0.000000
vt 10.000000 10.000000 0.000000
vt -5.000000 -8.660254 0.000000
vt 5.000000 -8.660254 0.000000
vt -10.000000 0.000000 0.000000
vt 10.000000 0.000000 0.000000
vt -5.000000 8.660254 0.000000
vt 5.000000 8.660254 0.000000
vt -5.000000 -8.660254 0.000000
vt 5.000000 -8.660254 0.000000
vt -10.000000 0.000000 0.000000
vt 10.000000 0.000000 0.000000
vt -5.000000 8.660254 0.000000
vt 5.000000 8.660254 0.000000
vn -0.000000 -100.000000 0.000000
vn -0.000000 -100.000000 0.000000
vn -0.000000 -100.000000 0.000000
vn -0.000000 -100.000000 0.000000
vn -86.602540 -50.000000 0.000000
vn -86.602540 -50.000000 0.000000
vn -86.602540 -50.000000 0.000000
vn -86.602540 -50.000000 0.000000
vn -86.602540 50.000000 0.000000
vn -86.602540 50.000000 0.000000
vn -86.602540 50.000000 0.000000
vn -86.602540 50.000000 0.000000
vn 0.000000 100.000000 0.000000
vn 0.000000 100.000000 0.000000
vn 0.000000 100.000000 0.000000
vn 0.000000 100.000000 0.000000
vn 86.602540 50.000000 0.000000
vn 86.602540 50.000000 0.000000
vn 86.602540 50.000000 0.000000
vn 86.602540 50.000000 0.000000
vn 86.602540 -50.000000 0.000000
vn 86.602540 -50.000000 0.000000
vn 86.602540 -50.000000 0.000000
vn 86.602540 -50.000000 0.000000
vn 0.000000 0.000000 100.000000
vn 0.000000 0.000000 100.000000
vn 0.000000 0.000000 100.000000
vn 0.000000 0.000000 100.000000
vn 0.000000 0.000000 100.000000
vn 0.000000 0.000000 100.000000
vn 0.000000 0.000000 -100.000000
vn 0.000000 0.000000 -100.000000
vn 0.000000 0.000000 -100.000000
vn 0.000000 0.000000 -100.000000
vn 0.000000 0.000000 -100.000000
vn 0.000000 0.000000 -100.000000
usemtl Steel_-_Satin
f 1/1/1 2/2/2 4/3/3
f 4/3/3 2/2/2 3/4/4
f 5/5/5 1/6/6 6/7/7
f 6/7/7 1/6/6 4/8/8
f 7/9/9 5/10/10 8/11/11
f 8/11/11 5/10/10 6/12/12
f 9/13/13 7/14/14 10/15/15
f 10/15/15 7/14/14 8/16/16
f 11/17/17 9/18/18 12/19/19
f 12/19/19 9/18/18 10/20/20
f 2/21/21 11/22/22 3/23/23
f 3/23/23 11/22/22 12/24/24
f 4/25/25 3/26/26 6/27/27
f 6/27/27 3/26/26 12/28/28
f 6/27/27 12/28/28 8/29/29
f 8/29/29 12/28/28 10/30/30
f 2/31/31 1/32/32 11/33/33
f 11/33/33 1/32/32 5/34/34
f 11/33/33 5/34/34 9/35/35
f 9/35/35 5/34/34 7/36/36
# 12 vertices
# 36 texture params
# 36 normals
# 20 facets

# 1 groups
